<svg aria-hidden="true" style="position:absolute;width:0;height:0" xmlns="http://www.w3.org/2000/svg" overflow="hidden"><defs><symbol id="icon-check" viewBox="0 0 46 32"><path stroke="var(--color1, #fff)" stroke-width=".711" d="M6.958 15.562l-.244-.231-3.676 3.463 12.947 12.283L43.183 5.272l-3.652-3.464-23.547 22.319-9.027-8.565z" fill="var(--color1, #fff)"/></symbol><symbol id="icon-checkbox" viewBox="0 0 32 32"><path d="M28.444 4.059v23.206H3.555V4.059h24.889zm0-3.315H3.555C1.599.744-.001 2.236-.001 4.059v23.206c0 1.823 1.6 3.315 3.556 3.315h24.889C30.4 30.58 32 29.088 32 27.265V4.059C32 2.236 30.4.744 28.444.744z"/></symbol><symbol id="icon-antenna" viewBox="0 0 32 32"><path fill="var(--color2, #212121)" d="M30.773 22.098l-8.443-8.505.937-4.615c.242.094.499.144.758.146h.006a2.159 2.159 0 10-2.008-1.435l-4.96.605L8.972.161a.534.534 0 00-.377-.16.532.532 0 00-.373.155L6.709 1.66a.534.534 0 000 .754l.814.826a14.943 14.943 0 002.519 17.663.513.513 0 00.146.098c-.034.18-.051.364-.052.547v6.187h-6.4a2.67 2.67 0 00-2.667 2.667v1.067c0 .295.239.533.533.533h24.533a.533.533 0 00.533-.533v-1.067a2.67 2.67 0 00-2.667-2.667h-6.4v-2.742a15.09 15.09 0 003.049.32 14.854 14.854 0 007.04-1.783l.818.823a.534.534 0 00.377.16.532.532 0 00.373-.155l1.513-1.504a.534.534 0 000-.754zM23.28 6.233a1.066 1.066 0 11.752 1.822h-.003a1.067 1.067 0 01-.747-1.823h-.002zm-1.256 3.505l-.598 2.946-1.175-1.182 1.774-1.763zm-.605-.902l-1.92 1.909-1.485-1.493 3.405-.415zM24.004 28.8a1.6 1.6 0 011.6 1.6v.533H2.137V30.4a1.6 1.6 0 011.6-1.6h20.267zm-7.467-2.133v1.067h-5.333v-1.067h5.333zM11.204 25.6v-4.053c0-1.294 1.196-2.347 2.667-2.347s2.667 1.053 2.667 2.347V25.6h-5.333zm6.4-1.696v-2.357c0-1.882-1.675-3.413-3.733-3.413a3.8 3.8 0 00-3.281 1.786A13.87 13.87 0 018.311 4.033l18.602 18.708a13.818 13.818 0 01-9.309 1.163zm11.289-.684L7.836 2.039l.755-.752 7.935 7.98c.004 0 .006.007.01.01l13.115 13.191-.757.752z"/><path fill="var(--color3, #2196f3)" d="M13.876 20.267h-.005a1.6 1.6 0 10-.004 3.2h.005a1.6 1.6 0 10.004-3.2zm.373 1.978a.534.534 0 01-.752-.756.534.534 0 01.373-.155.532.532 0 01.373.911h.005z"/></symbol><symbol id="icon-astronaut" viewBox="0 0 32 32"><path fill="var(--color3, #2196f3)" d="M31.974 4.524a.534.534 0 00-.43-.363l-1.91-.278-.855-1.731c-.179-.365-.777-.365-.956 0l-.855 1.731-1.91.278a.535.535 0 00-.296.91l1.383 1.348-.326 1.903c-.034.2.048.402.212.522a.53.53 0 00.562.04l1.709-.899 1.709.899a.536.536 0 00.775-.563l-.326-1.903 1.383-1.348a.536.536 0 00.135-.547zm-2.463 1.327a.534.534 0 00-.153.472l.191 1.114-1-.526a.533.533 0 00-.498 0l-1.001.526.191-1.114a.534.534 0 00-.153-.472l-.81-.789 1.119-.163a.532.532 0 00.402-.292l.5-1.013.5 1.013a.535.535 0 00.402.292l1.119.163-.809.789zM26.133 20.522h-1.067v1.067h1.067v-1.067zM26.133 22.656h-1.067v1.067h1.067v-1.067zM27.2 21.589h-1.067v1.067H27.2v-1.067zM25.067 21.589H24v1.067h1.067v-1.067zM22.4 26.389h-1.067v1.067H22.4v-1.067zM22.4 28.522h-1.067v1.067H22.4v-1.067zM23.467 27.456H22.4v1.067h1.067v-1.067zM21.333 27.456h-1.067v1.067h1.067v-1.067zM16 24.256h-1.067v1.067H16v-1.067zM16 26.389h-1.067v1.067H16v-1.067zM17.067 25.322H16v1.067h1.067v-1.067zM14.933 25.322h-1.067v1.067h1.067v-1.067zM5.866 6.122H4.799v1.067h1.067V6.122zM5.866 8.255H4.799v1.067h1.067V8.255z"/><path fill="var(--color3, #2196f3)" d="M6.933 7.189H5.866v1.067h1.067V7.189zM4.8 7.189H3.733v1.067H4.8V7.189z"/><path fill="var(--color2, #212121)" d="M24.715 14.159a1.775 1.775 0 00-1.188-.705 1.778 1.778 0 00-1.34.352l-1.252.96-1.898 1.417-1.358-.541c2.421-1.086 4.114-3.508 4.114-6.32 0-3.823-3.123-6.933-6.961-6.933s-6.961 3.11-6.961 6.933a6.86 6.86 0 001.12 3.758l-2.764-.024h-.005c-.009 0-.015.004-.023.005a.515.515 0 00-.155.031l-.038.013c-.006.003-.013.003-.019.006l-3.233 1.596-.001.001-1.893.911a.397.397 0 00-.063.035 1.779 1.779 0 00-.598 2.295c.22.429.595.745 1.056.889a1.776 1.776 0 001.378-.128l1.388-.738 2.264-1.169 1.357-.008L2.2 22.211l-.002.001-1.339 1.333c-.316.315-.49.732-.49 1.178s.174.863.49 1.179c.325.323.752.485 1.179.485s.854-.162 1.18-.485l1.314-1.309 1.741-1.3.901.897-1.762 1.754-.002.001-1.339 1.333c-.316.315-.49.732-.49 1.178s.174.863.49 1.179c.325.323.753.485 1.18.485s.855-.162 1.18-.485l3.482-3.467.001-.002 1.01-1-.004-.004c.006-.006.015-.009.022-.015l5.166-5.658 3.471.494a.52.52 0 00.262-.033c.018-.006.033-.015.05-.023.019-.01.039-.015.058-.027l3.213-2.133c.012-.008.018-.021.029-.029.013-.01.029-.014.041-.026l1.271-1.191c.662-.62.753-1.635.212-2.362zM2.13 17.77a.714.714 0 01-.558.052.717.717 0 01-.213-1.26l1.314-.632.449 1.312-.992.528zm3.498-1.828l-1.548.8-.439-1.283 2.027-1.001-.04 1.484zm15.099-6.62a5.79 5.79 0 01-.599 2.559l-4.181-1.899a1.863 1.863 0 00-.788-1.388l1.464-4.86c2.378.756 4.105 2.974 4.105 5.588zm-11.789 0c0-3.235 2.644-5.867 5.894-5.867.253 0 .5.021.745.052l-1.432 4.754c-.019-.001-.037-.006-.057-.006-1.033 0-1.873.837-1.873 1.867s.84 1.867 1.873 1.867c.694 0 1.294-.383 1.618-.945l3.862 1.755a5.894 5.894 0 01-4.737 2.39c-3.25 0-5.894-2.632-5.894-5.867zm5.956.8c0 .441-.362.8-.806.8s-.806-.359-.806-.8c0-.441.362-.8.806-.8s.806.359.806.8zM2.465 25.146a.608.608 0 01-.854.001.592.592 0 010-.844l.962-.958.851.848-.959.955zm3.214 3.734a.608.608 0 01-.855.001.592.592 0 010-.844l.963-.959.852.848-.96.955zm3.481-3.469l-.002.001-1.765 1.76-.852-.848 1.763-1.755.002-.001c.04-.04.065-.088.09-.135.007-.014.02-.026.026-.04.017-.041.019-.085.026-.129.003-.025.014-.047.014-.073 0-.036-.013-.07-.02-.106-.006-.032-.006-.065-.019-.095a.55.55 0 00-.091-.138c-.01-.012-.014-.027-.025-.038h-.001l-.001-.002-1.607-1.6c-.017-.017-.039-.024-.058-.038a.507.507 0 00-.087-.058.515.515 0 00-.093-.033.507.507 0 00-.103-.02.5.5 0 00-.095.005.53.53 0 00-.104.02.477.477 0 00-.094.045c-.02.011-.042.015-.061.029L4.23 23.486l-.901-.897 2.399-2.386 4.361 4.289-.928.919zm6.819-7.017c-.015-.002-.03.004-.045.003a.556.556 0 00-.3.075.492.492 0 00-.083.061c-.013.011-.028.017-.04.029l-4.698 5.146-4.328-4.257 2.833-2.818a.534.534 0 00-.379-.911v-.001l-2.219.013.028-1.607 3.104.027a6.947 6.947 0 004.981 2.101c.437 0 .864-.045 1.279-.123.04.032.079.065.13.085l2.41.96.152.758.178.885-3.003-.427zm4.041.178l-.313-1.558 1.446-1.08.947 1.257-2.08 1.381zm3.754-2.831l-.838.785-.931-1.236.831-.637a.735.735 0 01.543-.143.718.718 0 01.48.284.713.713 0 01-.085.947z"/><path fill="var(--color2, #212121)" d="M13.602 18.544l-2.143-2.133a.534.534 0 00-.753 0l-2.142 2.133a.537.537 0 000 .756l2.142 2.133a.536.536 0 00.753 0l2.143-2.133a.535.535 0 000-.756zm-2.519 1.759l-1.387-1.381 1.387-1.381 1.387 1.381-1.387 1.381zM17.164 5.071l-.258 1.036c.071.018 1.738.452 1.738 2.149h1.067c0-2.017-1.666-2.965-2.547-3.185zM19.711 9.322h-1.067v1.067h1.067V9.322z"/></symbol><symbol id="icon-clock" viewBox="0 0 32 32"><path fill="var(--color2, #212121)" d="M31.297 15.301C31.295 6.849 24.442-.002 15.989 0S.686 6.855.688 15.308a15.304 15.304 0 0010.649 14.576.662.662 0 00.529-.065.637.637 0 00.283-.356l3.865-12.25a1.912 1.912 0 10-.84-3.635l-5.106-5.107a.637.637 0 00-.902.902l5.103 5.109a1.876 1.876 0 00.536 2.309l-3.683 11.673C3.844 25.783.118 17.71 2.799 10.432S13.553-.572 20.831 2.109s11.004 10.754 8.323 18.032a14.042 14.042 0 01-7.462 7.973l-.398-1.874a.638.638 0 00-1.048-.344l-3.837 3.426a.637.637 0 00.231 1.084l4.899 1.563a.638.638 0 00.819-.74l-.391-1.839a15.255 15.255 0 009.329-14.089zm-15.305-.637a.638.638 0 110 1.277.638.638 0 010-1.277zm2.101 14.864l2.184-1.948.603 2.84-2.787-.892z"/><path fill="var(--color3, #2196f3)" d="M15.354 3.185V4.46a.638.638 0 101.276 0V3.185a.638.638 0 00-1.276 0zM3.876 14.664a.638.638 0 000 1.276h1.275a.638.638 0 100-1.276H3.876zM28.108 15.939a.638.638 0 100-1.276h-1.275a.638.638 0 000 1.276h1.275z"/></symbol><symbol id="icon-close" viewBox="0 0 32 32"><path d="M26.667 7.303l-1.97-1.97-7.808 7.808-7.808-7.808-1.97 1.97 7.808 7.808-7.808 7.808 1.97 1.97 7.808-7.808 7.808 7.808 1.97-1.97-7.808-7.808 7.808-7.808z"/></symbol><symbol id="icon-diagram" viewBox="0 0 32 32"><path fill="var(--color3, #2196f3)" d="M14.925 14.965h1.066v4.798h-1.066v-4.797zM19.19 17.097h1.066v2.665H19.19v-2.665zM10.661 18.696h1.066v1.066h-1.066v-1.066zM7.463 18.163h1.066v1.599H7.463v-1.599z"/><path fill="var(--color2, #212121)" d="M1.599 28.291h25.587a1.6 1.6 0 001.599-1.599V24.56a1.6 1.6 0 00-1.599-1.599h-.533V9.668L29.681 6.8a1.608 1.608 0 10-.746-.763L26.654 8.2V6.97a1.6 1.6 0 00-1.599-1.599H3.733A1.6 1.6 0 002.134 6.97v15.992h-.533a1.6 1.6 0 00-1.599 1.599v2.132a1.6 1.6 0 001.599 1.599zM30.384 4.837a.533.533 0 110 1.067.533.533 0 010-1.067zM3.198 6.969c0-.294.239-.533.533-.533h21.322c.294 0 .533.239.533.533v2.239l-1.066 1.013V8.035a.533.533 0 00-.533-.533H4.797a.533.533 0 00-.533.533v13.326c0 .294.239.533.533.533h19.19a.533.533 0 00.533-.533v-9.674l1.066-1.01v12.284H3.198V6.969zm4.798 6.93a1.598 1.598 0 101.107 2.749l1.853.93a.532.532 0 00.636-.123l3.939-4.431 3.872 2.901a.533.533 0 00.686-.039l3.365-3.188v8.131H5.33V8.569h18.124v2.66l-3.771 3.572-3.904-2.927a.533.533 0 00-.718.072l-3.993 4.493-1.493-.746c.011-.064.018-.129.02-.193a1.6 1.6 0 00-1.599-1.599zm.533 1.599a.533.533 0 11-1.067 0 .533.533 0 011.067 0zm3.198 8.529h5.331v.533a.533.533 0 01-.533.533h-4.264a.533.533 0 01-.533-.533v-.533zm-10.661.533c0-.294.239-.533.533-.533h9.062v.533a1.6 1.6 0 001.599 1.599h4.264a1.6 1.6 0 001.599-1.599v-.533h9.062c.294 0 .533.239.533.533v2.132a.533.533 0 01-.533.533H1.598a.533.533 0 01-.533-.533V24.56z"/></symbol><symbol id="icon-email" viewBox="0 0 32 32"><path d="M26.667 5.333H5.334A2.663 2.663 0 002.681 8l-.013 16c0 1.467 1.2 2.667 2.667 2.667h21.333c1.467 0 2.667-1.2 2.667-2.667V8c0-1.467-1.2-2.667-2.667-2.667zM26.133 11l-9.427 5.893a1.346 1.346 0 01-1.413 0L5.866 11a1.132 1.132 0 111.2-1.92l8.933 5.587 8.933-5.587a1.132 1.132 0 111.2 1.92z"/></symbol><symbol id="icon-envelope" viewBox="0 0 43 32"><path d="M38.667 2.171H4c-2.206 0-4 1.666-4 3.714v22.281c0 2.048 1.794 3.713 4 3.713h34.667c2.206 0 4-1.666 4-3.713V5.885c0-2.048-1.794-3.714-4-3.714zm0 2.475c.181 0 .353.035.511.096L21.334 19.1 3.49 4.742c.158-.061.33-.096.511-.096h34.667zm0 24.757H4c-.736 0-1.333-.555-1.333-1.238V7.357L20.46 21.673c.251.202.563.302.874.302s.622-.1.874-.302L40.001 7.357v20.808c0 .683-.598 1.238-1.333 1.238z"/></symbol><symbol id="icon-facebook" viewBox="0 0 32 32"><path d="M21.329 5.313h2.921V.225C23.746.156 22.013 0 19.994 0c-4.212 0-7.097 2.649-7.097 7.519V12H8.249v5.688h4.648V32h5.699V17.689h4.46l.708-5.688h-5.169V8.082c.001-1.644.444-2.769 2.735-2.769z"/></symbol><symbol id="icon-instagram" viewBox="0 0 32 32"><path d="M31.969 9.408c-.075-1.7-.35-2.869-.744-3.882a7.806 7.806 0 00-1.851-2.838A7.867 7.867 0 0026.542.844C25.523.45 24.36.175 22.66.1 20.947.019 20.403 0 16.059 0s-4.888.019-6.595.094c-1.7.075-2.869.35-3.882.744a7.803 7.803 0 00-2.838 1.85A7.867 7.867 0 00.9 5.52C.506 6.539.231 7.702.156 9.402c-.081 1.713-.1 2.257-.1 6.601s.019 4.888.094 6.595c.075 1.7.35 2.869.744 3.882a7.895 7.895 0 001.85 2.838 7.867 7.867 0 002.832 1.844c1.019.394 2.182.669 3.882.744 1.706.075 2.25.094 6.595.094s4.888-.019 6.595-.094c1.7-.075 2.869-.35 3.882-.744a8.184 8.184 0 004.682-4.682c.394-1.019.669-2.182.744-3.882.075-1.707.094-2.251.094-6.595s-.006-4.888-.081-6.595zm-2.882 13.065c-.069 1.563-.331 2.407-.55 2.969a5.31 5.31 0 01-3.038 3.038c-.563.219-1.413.481-2.969.55-1.688.075-2.194.094-6.464.094s-4.782-.019-6.464-.094c-1.563-.069-2.407-.331-2.969-.55a4.926 4.926 0 01-1.838-1.194 4.974 4.974 0 01-1.194-1.838c-.219-.563-.481-1.413-.55-2.969-.075-1.688-.094-2.194-.094-6.464s.019-4.782.094-6.464c.069-1.563.331-2.407.55-2.969a4.868 4.868 0 011.2-1.838A4.974 4.974 0 016.639 3.55c.563-.219 1.413-.481 2.969-.55 1.688-.075 2.194-.094 6.464-.094 4.276 0 4.782.019 6.464.094 1.563.069 2.407.331 2.969.55a4.914 4.914 0 011.838 1.194 4.974 4.974 0 011.194 1.838c.219.563.481 1.413.55 2.969.075 1.688.094 2.194.094 6.464s-.019 4.77-.094 6.458z"/><path d="M16.059 7.783c-4.538 0-8.22 3.682-8.22 8.22s3.682 8.22 8.22 8.22c4.539 0 8.22-3.682 8.22-8.22s-3.682-8.22-8.22-8.22zm0 13.552a5.333 5.333 0 010-10.664 5.333 5.333 0 010 10.664zM26.524 7.458a1.919 1.919 0 11-3.838 0 1.919 1.919 0 013.838 0z"/></symbol><symbol id="icon-linkedin" viewBox="0 0 32 32"><path d="M31.992 32v-.001H32V20.263c0-5.741-1.236-10.164-7.948-10.164-3.227 0-5.392 1.771-6.276 3.449h-.093v-2.913h-6.364v21.364h6.627V21.42c0-2.785.528-5.479 3.977-5.479 3.399 0 3.449 3.179 3.449 5.657v10.401h6.62zM.528 10.636h6.635V32H.528V10.636zM3.843 0C1.722 0 0 1.721 0 3.843s1.721 3.879 3.843 3.879c2.121 0 3.843-1.757 3.843-3.879A3.846 3.846 0 003.843 0z"/></symbol><symbol id="icon-logo-1" viewBox="0 0 29 32"><path d="M3.84.18l4.677 4.403h13.046v12.283l4.677 4.403V.179H3.84z"/><path d="M0 4.398v20.487h21.76v-8.143L8.655 4.404 0 4.399zm17.615 17.49H3.443V8.109h1.002v12.846h13.17v.933zM6.266 28.696l.523-1.078h.438l-.763 1.438v.837h-.397v-.837l-.764-1.438h.439l.523 1.078zm2.247.667h-.881l-.184.53h-.411l.859-2.275h.355l.861 2.275H8.7l-.186-.53zm-.77-.318h.659l-.33-.944-.33.944zm2.328.234c0-.105.029-.202.086-.289.057-.088.17-.193.339-.314-.088-.111-.151-.206-.186-.284s-.052-.154-.052-.227c0-.178.054-.319.162-.422a.605.605 0 01.438-.156.57.57 0 01.406.147.47.47 0 01.159.361.505.505 0 01-.072.263.879.879 0 01-.236.238l-.155.112.439.519a.9.9 0 00.095-.417h.33c0 .28-.066.51-.197.689l.334.395h-.441l-.128-.152c-.162.122-.356.183-.581.183s-.405-.059-.541-.178a.599.599 0 01-.202-.467zm.753.342a.58.58 0 00.359-.128l-.497-.586-.048.034c-.125.095-.188.203-.188.325 0 .105.034.191.102.256s.158.098.272.098zm-.209-1.466c0 .087.054.197.161.33l.173-.119.048-.039a.28.28 0 00.097-.22c0-.059-.022-.11-.067-.152s-.102-.064-.17-.064c-.074 0-.133.025-.177.075s-.066.113-.066.189zm4.133.997a.827.827 0 01-.269.569c-.156.135-.364.203-.623.203a.902.902 0 01-.48-.128c-.137-.086-.244-.209-.319-.367s-.114-.342-.117-.552v-.212c0-.215.038-.404.114-.567a.86.86 0 01.821-.511c.251 0 .453.068.606.205s.242.329.267.578h-.394c-.019-.164-.067-.281-.144-.353-.076-.073-.188-.109-.336-.109a.464.464 0 00-.397.189c-.092.125-.139.309-.141.552v.202c0 .246.044.433.131.563s.218.194.387.194c.155 0 .272-.035.35-.105s.128-.186.148-.348h.394zm2.17-.337c0 .223-.039.419-.116.588a.876.876 0 01-.331.387.905.905 0 01-.494.134.926.926 0 01-.494-.134.896.896 0 01-.334-.386 1.363 1.363 0 01-.119-.577v-.128c0-.222.039-.418.117-.587.079-.17.19-.3.333-.389.144-.091.308-.136.494-.136s.349.045.492.134a.871.871 0 01.333.384c.078.167.118.361.119.583v.127zm-.395-.119c0-.252-.048-.445-.144-.58a.468.468 0 00-.405-.202.467.467 0 00-.402.202c-.096.133-.145.322-.147.567v.131c0 .25.048.443.145.58s.233.205.406.205a.464.464 0 00.403-.2c.095-.133.142-.328.142-.584v-.119z"/></symbol><symbol id="icon-logo-2" viewBox="0 0 25 32"><path d="M10.447 1.806h.084c.156 0 .324.016.49.03.734.052 1.463.162 2.179.329V.403a12.97 12.97 0 00-2.25-.358 18.11 18.11 0 00-.909-.044h-.263a18.35 18.35 0 00-4.515.582 18.3 18.3 0 00-4.79 1.948v17.475a19.484 19.484 0 014.566-1.779 19.948 19.948 0 013.833-.588h.051c.216-.011.433-.017.655-.019v-1.79a21.155 21.155 0 00-4.982.662 23.81 23.81 0 00-1.731.513l-.623.211V3.591l.266-.128a17.409 17.409 0 016.471-1.651.523.523 0 01.056 0c.248-.013.497-.019.741-.019h.28c.129.003.258.006.388.014z"/><path d="M14.838 3.651a15.823 15.823 0 01-2.606-.211c-.277-.047-.55-.103-.814-.164v17.275a13.82 13.82 0 003.425.404 18.396 18.396 0 004.515-.581 18.362 18.362 0 004.792-1.948V1.263a19.562 19.562 0 01-4.564 1.781 19.388 19.388 0 01-4.747.609zm6.907.299l.623-.21v13.63l-.266.128a17.055 17.055 0 01-3.184 1.144c-1.331.344-2.7.522-4.074.527-.411 0-.819-.017-1.214-.052l-.427-.038V5.062l.497.033c.361.023.735.034 1.141.034a21.098 21.098 0 005.173-.663 26.802 26.802 0 001.731-.518zM1.684 25.977a.912.912 0 00-.693-.28 1.034 1.034 0 00-.4.075.91.91 0 00-.512.518 1.023 1.023 0 00-.072.387v2.335c-.006.165.026.328.092.479.055.12.135.226.233.313a.815.815 0 00.321.166c.114.032.231.048.349.049a.972.972 0 00.892-.61.951.951 0 00.075-.372v-.261h-.61v.208a.528.528 0 01-.036.208.359.359 0 01-.089.131.365.365 0 01-.128.067.425.425 0 01-.128.022.314.314 0 01-.286-.125.548.548 0 01-.081-.313v-2.177a.738.738 0 01.075-.349.31.31 0 01.299-.141.33.33 0 01.272.131c.068.09.104.2.101.313v.202h.604v-.238a1.093 1.093 0 00-.279-.737zM5.31 25.95a1.051 1.051 0 00-1.38 0 .961.961 0 00-.237.327 1.099 1.099 0 00-.089.452v2.239a1.08 1.08 0 00.089.459c.055.12.136.227.237.313a.94.94 0 00.322.197 1.028 1.028 0 00.728 0c.121-.044.233-.111.33-.197a.948.948 0 00.23-.313 1.08 1.08 0 00.089-.459v-2.239a1.08 1.08 0 00-.089-.452 1.015 1.015 0 00-.23-.327zm-.285 3.019a.405.405 0 01-.121.324.445.445 0 01-.574 0 .397.397 0 01-.121-.324V26.73a.405.405 0 01.121-.324.445.445 0 01.574 0 .397.397 0 01.121.324v2.239zM10.072 29.969V25.73h-.587l-.771 2.244h-.011l-.777-2.244h-.581v4.239h.606V27.39h.011l.593 1.823h.302l.598-1.823h.011v2.579h.606zM13.513 26.027a.84.84 0 00-.343-.232 1.363 1.363 0 00-.439-.066h-.9v4.239h.604v-1.656h.311c.188.009.376-.031.545-.116a.882.882 0 00.332-.324 1.02 1.02 0 00.139-.369c.024-.16.035-.321.033-.482a2.421 2.421 0 00-.059-.606.898.898 0 00-.223-.39zm-.312 1.292a.547.547 0 01-.056.221.346.346 0 01-.156.149.619.619 0 01-.285.053h-.276v-1.441h.311a.578.578 0 01.272.053.349.349 0 01.142.157.62.62 0 01.053.236v.282c0 .099.006.2 0 .291H13.2zM16.374 25.73h-.495l-.934 4.239h.604l.177-.911h.824l.177.911h.604l-.957-4.239zm-.558 2.751l.297-1.537h.011l.296 1.537h-.604zM20.277 28.284h-.011l-.912-2.554h-.581v4.239h.604V27.42h.012l.923 2.549h.568V25.73h-.604v2.554zM23.968 25.73l-.486 1.685h-.012l-.486-1.685h-.64l.83 2.447v1.792h.604v-1.792l.83-2.447h-.64zM0 31.166h.291v.817h.198v-.817h.29v-.167H.001v.167zM2.447 30.998l-.381.984h.21l.081-.224h.392l.084.224h.215l-.391-.984h-.21zm-.031.595l.134-.365.134.365h-.268zM4.866 31.62h.227v.127a.382.382 0 01-.234.083.244.244 0 01-.209-.093.411.411 0 01-.073-.257c0-.219.095-.329.283-.329a.206.206 0 01.222.157l.195-.038c-.042-.192-.181-.289-.417-.289a.495.495 0 00-.344.127.494.494 0 00-.141.379.532.532 0 00.126.369.477.477 0 00.374.144.59.59 0 00.417-.157v-.388h-.427v.166zM7.337 30.998h-.199v.984h.69v-.167h-.49v-.817zM9.426 30.998h-.199v.984h.199v-.984zM11.469 31.656l-.403-.657h-.193v.984h.185v-.643l.395.643h.198v-.984h-.182v.657zM13.315 31.549h.49v-.167h-.49v-.216h.528v-.167h-.727v.984h.747v-.167h-.548v-.266zM17.792 31.387h-.388v-.388h-.198v.984h.198v-.43h.388v.43h.198v-.984h-.198v.388zM19.649 31.549h.492v-.167h-.492v-.216h.529v-.167h-.727v.984h.746v-.167h-.548v-.266zM22.168 31.549c.171-.027.258-.117.258-.274a.236.236 0 00-.096-.219.553.553 0 00-.288-.058h-.417v.984h.198v-.412h.039a.261.261 0 01.123.022.21.21 0 01.07.072l.215.313h.237l-.12-.192a.685.685 0 00-.218-.236zm-.199-.136h-.146v-.247h.156a.526.526 0 01.201.023c.014.013.026.029.033.046a.133.133 0 01-.005.111.128.128 0 01-.037.043.547.547 0 01-.201.023zM24.067 31.549h.49v-.167h-.49v-.216h.529v-.167h-.729v.984h.747v-.167h-.548v-.266z"/></symbol><symbol id="icon-logo-3" viewBox="0 0 31 32"><path d="M4.722 31.126a.088.088 0 01.059.025l.153.16a1.266 1.266 0 01-.431.303 1.55 1.55 0 01-.611.109 1.496 1.496 0 01-.574-.102 1.247 1.247 0 01-.712-.73 1.602 1.602 0 01-.098-.568 1.489 1.489 0 01.105-.57c.067-.165.168-.315.297-.443.131-.125.287-.223.459-.288.189-.069.389-.104.591-.102.188-.004.375.027.549.093.152.062.291.149.412.256l-.128.171a.14.14 0 01-.033.031.084.084 0 01-.052.013.123.123 0 01-.056-.018l-.069-.045-.096-.058a.972.972 0 00-.302-.101 1.238 1.238 0 00-.228-.018 1.138 1.138 0 00-.425.076.957.957 0 00-.333.214.998.998 0 00-.216.341c-.054.144-.08.297-.078.45-.002.156.024.31.078.457.047.125.119.24.212.339a.858.858 0 00.318.21c.125.049.259.074.394.073.078.001.156-.004.234-.015a.87.87 0 00.354-.122c.054-.034.104-.071.151-.112a.115.115 0 01.073-.029zM9.144 30.324c.002.192-.033.384-.103.564-.062.164-.161.313-.288.438s-.282.223-.452.287a1.723 1.723 0 01-1.164 0 1.273 1.273 0 01-.741-.731 1.594 1.594 0 010-1.13c.065-.165.164-.316.291-.444a1.31 1.31 0 01.45-.277c.374-.138.79-.138 1.164 0 .17.065.324.164.452.288.126.126.224.275.289.437.071.182.106.374.103.568zm-.402 0a1.296 1.296 0 00-.073-.453.946.946 0 00-.205-.339.908.908 0 00-.323-.214 1.242 1.242 0 00-.846 0 .912.912 0 00-.531.553 1.45 1.45 0 000 .907.886.886 0 00.531.551c.273.097.573.097.846 0a.895.895 0 00.528-.551 1.3 1.3 0 00.073-.453zM12.161 30.8l.04.102a3.46 3.46 0 01.044-.102c.015-.034.031-.067.05-.1l.978-1.685c.019-.029.036-.047.056-.053a.217.217 0 01.08-.009h.289v2.74h-.343v-2.015-.085a.737.737 0 010-.094l-.984 1.708c-.012.026-.033.047-.058.062s-.054.023-.084.023h-.056a.154.154 0 01-.141-.086l-1.013-1.719v2.2h-.331v-2.735h.289a.24.24 0 01.08.009c.024.011.043.03.054.053l.999 1.687c.02.031.036.064.05.098zM15.841 30.663v1.027h-.383v-2.737h.854a1.67 1.67 0 01.477.06.897.897 0 01.337.171.692.692 0 01.191.268c.045.112.067.23.065.35a.83.83 0 01-.071.35.749.749 0 01-.207.274.949.949 0 01-.339.181 1.467 1.467 0 01-.461.063l-.463-.007zm0-.293h.463a.992.992 0 00.297-.042.614.614 0 00.214-.118.474.474 0 00.13-.181.57.57 0 00.046-.23.517.517 0 00-.172-.41.77.77 0 00-.515-.147h-.463v1.128zM20.987 31.694h-.302a.139.139 0 01-.084-.025.169.169 0 01-.05-.063l-.26-.662h-1.307l-.27.662a.151.151 0 01-.048.062.132.132 0 01-.086.027h-.302l1.148-2.741h.398l1.164 2.741zm-1.895-1.018h1.08l-.456-1.115a1.816 1.816 0 01-.086-.258l-.044.143c-.013.044-.029.083-.042.116l-.452 1.114zM22.641 28.966a.16.16 0 01.057.049l1.675 2.066v-.096-2.032h.343v2.741h-.191a.173.173 0 01-.078-.016.2.2 0 01-.061-.051l-1.673-2.064a.737.737 0 010 .094v2.037h-.343v-2.741h.203a.163.163 0 01.069.013zM27.537 30.604v1.088h-.383v-1.088l-1.059-1.651h.343a.124.124 0 01.082.024.238.238 0 01.052.062l.662 1.065a1.498 1.498 0 01.117.243l.05-.118a.988.988 0 01.065-.125l.653-1.072a.274.274 0 01.05-.058.116.116 0 01.082-.027h.346l-1.06 1.658zM11.971 24.354c.167.02.335.036.505.051 2.583-1.095 4.768-2.887 6.282-5.151s2.29-4.902 2.231-7.583l-2.846-2.697c.579 2.854.308 5.804-.782 8.52s-2.956 5.092-5.389 6.86z"/><path d="M10.955 24.228l.077.015c2.6-1.762 4.583-4.223 5.691-7.065s1.292-5.933.526-8.874l-4.054-3.841c1.64 3.157 2.3 6.691 1.903 10.19s-1.833 6.819-4.143 9.575zM24.704 14.837c-.689 2.945-2.362 5.601-4.77 7.574a15.12 15.12 0 01-2.266 1.542c1.961-.546 3.764-1.512 5.269-2.822s2.672-2.931 3.412-4.737l-1.644-1.556z"/><path d="M24.059 14.404l-2.341-2.218c-.045 2.529-.804 5-2.197 7.158s-3.372 3.921-5.729 5.109h.012a14 14 0 001.572-.089c2.203-.852 4.148-2.207 5.664-3.945s2.553-3.804 3.021-6.014zM11.294 2.843L8.501.193c-2.497.914-4.644 2.521-6.161 4.611S.008 9.368 0 11.904c.009 2.802 1.005 5.522 2.829 7.728s4.372 3.772 7.242 4.452c2.561-2.957 4.061-6.611 4.281-10.431s-.851-7.606-3.058-10.81zM30.512 13.996c-.01-3.325-1.408-6.511-3.89-8.862s-5.843-3.676-9.352-3.686a13.744 13.744 0 00-4.741.836l17.099 16.202c.586-1.432.885-2.955.884-4.491z"/></symbol><symbol id="icon-logo-5" viewBox="0 0 40 32"><path d="M3.055 26.742c.156.194.24.438.236.688a1.092 1.092 0 01-.365.869 1.575 1.575 0 01-1.061.317H0v-4.361h1.827c.361-.024.718.078 1.012.29a.998.998 0 01.354.816c.011.241-.065.477-.212.667a.997.997 0 01-.556.341c.247.045.471.177.63.373zm-2.187-.658h.781a.736.736 0 00.496-.145.515.515 0 00.167-.426.526.526 0 00-.165-.426.75.75 0 00-.511-.147H.868v1.144zm1.354 1.672a.54.54 0 00.185-.443.56.56 0 00-.188-.448.803.803 0 00-.53-.158H.87v1.199h.83a.822.822 0 00.524-.151zM6.79 28.617l-1.016-1.704h-.382v1.704h-.874v-4.361h1.655c.417-.029.83.104 1.152.371a1.394 1.394 0 01.123 1.804 1.342 1.342 0 01-.789.443l1.082 1.743H6.79zm-1.399-2.299h.715c.497 0 .745-.22.745-.66a.641.641 0 00-.183-.49.771.771 0 00-.562-.177h-.724l.008 1.327zM11.568 27.739H9.826l-.308.878h-.917l1.6-4.312h.991l1.594 4.312h-.917l-.301-.878zm-.233-.66l-.637-1.841-.637 1.841h1.273zM17.55 28.617h-.868l-1.946-2.965v2.965h-.866v-4.361h.866l1.946 2.983v-2.983h.868v4.361zM22.502 27.573a1.877 1.877 0 01-.785.769 2.546 2.546 0 01-1.22.275h-1.545v-4.361h1.545c.422-.011.841.081 1.22.268.332.168.606.433.785.761a2.541 2.541 0 010 2.288zm-.993-.104a1.601 1.601 0 000-2.082 1.506 1.506 0 00-1.086-.371h-.603v2.823h.603a1.5 1.5 0 001.086-.371zM12.111 0s11.201 4.246 10.963 10.39v10.392S11.881 16.534 12.115 10.39L12.111 0zM33.054 18.349a15.301 15.301 0 017.117-2.633v-3.253a14.62 14.62 0 00-7.117 5.886z"/><path d="M31.783 19.329a15.237 15.237 0 018.388-7.548V2.407S24.219 8.455 24.557 17.204v14.795s.711-.27 1.829-.778c0-.473 0-.95.051-1.43a15.387 15.387 0 015.347-10.464z"/><path d="M30.266 24.825a15.35 15.35 0 01.558-3.029 14.323 14.323 0 00-3.378 8.937 46.367 46.367 0 003.068-1.623 15.355 15.355 0 01-.248-4.284zM30.9 24.878a14.705 14.705 0 00.197 3.879c4.358-2.618 9.255-6.664 9.066-11.553v-.426a14.276 14.276 0 00-8.292 3.89 14.648 14.648 0 00-.972 4.21z"/></symbol><symbol id="icon-logo-6" viewBox="0 0 62 32"><path d="M31.124 14.962a2.243 2.243 0 01-.397-1.423v-2.063c0-.633.132-1.113.395-1.442s.715-.493 1.356-.491c.602 0 1.029.14 1.282.42.276.357.41.794.379 1.234v.485h-1.077v-.491a2.764 2.764 0 00-.031-.481.483.483 0 00-.154-.286.581.581 0 00-.39-.111.619.619 0 00-.41.118.558.558 0 00-.178.315 2.564 2.564 0 00-.042.51v2.504c-.017.242.031.483.138.703a.539.539 0 00.493.209.55.55 0 00.381-.113.52.52 0 00.161-.304 3.01 3.01 0 00.033-.502v-.508h1.077v.464c.03.459-.101.915-.372 1.297-.248.306-.669.46-1.289.46s-1.088-.164-1.353-.504zM35.607 14.983c-.272-.321-.408-.789-.408-1.409v-2.171c0-.613.136-1.077.408-1.392s.727-.472 1.364-.47c.633 0 1.086.157 1.358.47.272.315.41.779.41 1.392v2.171c0 .613-.138 1.083-.415 1.406s-.727.485-1.353.485c-.627 0-1.09-.164-1.364-.483zm1.866-.521c.097-.201.142-.422.129-.642v-2.657a1.265 1.265 0 00-.127-.63c-.055-.076-.131-.136-.22-.173s-.187-.05-.284-.037c-.097-.013-.195 0-.285.037s-.166.097-.221.173a1.244 1.244 0 00-.129.63v2.67c-.014.221.031.441.129.642.063.068.14.122.227.159a.707.707 0 00.781-.159v-.013zM40.035 9.605h1.159l.872 4.005.892-4.005h1.128l.114 5.781h-.834l-.089-4.017-.861 4.017h-.669l-.892-4.032-.082 4.032h-.843l.105-5.781zM45.5 9.605h1.806c1.04 0 1.561.547 1.561 1.641 0 1.048-.548 1.571-1.643 1.57h-.615v2.569h-1.115l.007-5.781zm1.543 2.47a.808.808 0 00.613-.183c.128-.195.184-.425.161-.653a1.977 1.977 0 00-.053-.525.455.455 0 00-.223-.275 1.06 1.06 0 00-.497-.092h-.433v1.727h.433zM50.474 9.605h1.197l1.228 5.781H51.86l-.243-1.333h-1.068l-.25 1.333h-1.055l1.228-5.781zm1.023 3.778l-.417-2.426-.417 2.426h.834zM53.891 9.605h.78l1.494 3.297V9.605h.925v5.781h-.742l-1.503-3.442v3.442h-.956l.002-5.781zM59.258 13.181l-1.242-3.568h1.046l.758 2.292.711-2.292h1.023l-1.226 3.568v2.204h-1.07v-2.204zM32.845 17.913v.302h-.91v2.349h-.381v-2.349h-.914v-.302h2.205zM35.697 20.564h-.294a.124.124 0 01-.083-.025.139.139 0 01-.049-.061l-.263-.63h-1.262l-.263.63a.179.179 0 01-.04.071.128.128 0 01-.083.025h-.294l1.115-2.651h.388l1.128 2.641zm-1.846-.984h1.052l-.446-1.079a2.218 2.218 0 01-.083-.25c-.016.05-.029.099-.042.141l-.04.111-.441 1.077zM37.618 20.304a1.071 1.071 0 00.388-.032c.055-.013.108-.029.16-.048.049-.019.098-.042.149-.065v-.596h-.446c-.011.001-.022-.001-.032-.005s-.02-.009-.028-.016c-.007-.006-.013-.013-.017-.022s-.006-.017-.005-.027v-.204h.865v1.016a1.577 1.577 0 01-.47.216 1.995 1.995 0 01-.279.055 3.22 3.22 0 01-.326.017 1.581 1.581 0 01-.562-.099 1.335 1.335 0 01-.446-.277 1.29 1.29 0 01-.288-.42 1.444 1.444 0 01-.103-.55 1.5 1.5 0 01.1-.554c.064-.157.162-.3.288-.42a1.33 1.33 0 01.446-.275c.191-.068.394-.101.597-.099.104 0 .207.008.31.023a1.39 1.39 0 01.488.172c.068.041.133.088.194.139l-.107.164c-.008.015-.021.028-.036.036s-.033.014-.051.014a.136.136 0 01-.069-.021 1.538 1.538 0 01-.109-.063.886.886 0 00-.149-.071 1.301 1.301 0 00-.205-.059 1.574 1.574 0 00-.283-.023 1.208 1.208 0 00-.43.073.927.927 0 00-.328.21.921.921 0 00-.207.33c-.1.287-.1.597 0 .884a.956.956 0 00.549.544c.142.046.292.064.441.052zM41.172 20.262h1.217v.302h-1.59v-2.651h.381l-.009 2.349zM43.656 20.564h-.381v-2.651h.381v2.651zM45.074 17.925a.194.194 0 01.058.048l1.63 1.998a.737.737 0 010-.094v-1.975h.332v2.662h-.192a.17.17 0 01-.083-.015.208.208 0 01-.06-.05l-1.628-1.996v2.061h-.319v-2.651h.198c.022 0 .043.004.062.013zM49.901 17.913v.292H48.55v.875h1.095v.281H48.55v.905h1.351v.292h-1.743v-2.645h1.743zM9.95 1.54l16.929 4.526v15.858L9.95 17.401V1.54zM8.864.189v17.983l19.098 5.107V5.298L8.864.189z"/><path d="M19.1 31.626L0 26.515V8.534l19.1 5.109v17.983z"/><path d="M9.181 1.337l16.708 4.469-7.105 6.692-16.71-4.471 7.108-6.69zM8.864.189L0 8.535l19.1 5.109 8.862-8.346L8.864.189zM20.175 30.614l7.788-7.334-7.788-2.084v9.418z"/></symbol><symbol id="icon-logo-4" viewBox="0 0 60 32"><path d="M9.23 9.69h-.002c-1.684 0-3.048 1.323-3.048 2.954v.002c0 1.632 1.365 2.954 3.048 2.954h.002c1.684 0 3.048-1.323 3.048-2.954v-.002c0-1.632-1.365-2.954-3.048-2.954zM31.73 8.745c-.005-2.266-.936-4.438-2.589-6.041S25.247.199 22.908.193c-2.339.004-4.581.906-6.235 2.509s-2.586 3.776-2.59 6.043v12.497S31.728 19.337 31.73 8.747v-.002zM0 25.344c.004 1.577.652 3.088 1.803 4.203a6.256 6.256 0 008.672 0 5.87 5.87 0 001.803-4.202v-8.696S0 17.975 0 25.343zm6.139 1.558c-.318 0-.629-.091-.893-.263s-.47-.415-.592-.699c-.122-.285-.154-.598-.091-.9s.215-.58.44-.798c.225-.218.511-.366.823-.426s.635-.029.929.089.545.318.721.574a1.52 1.52 0 01.15 1.464c-.081.19-.199.362-.348.507-.149.145-.327.261-.522.339s-.405.119-.617.119v-.006zM18.671 25.953h-1.256v1.297h-.654v-3.174h2.067v.53h-1.413v.82h1.256v.528zm3.144-.218c0 .312-.055.586-.166.822a1.248 1.248 0 01-1.181.737c-.263 0-.498-.063-.704-.19s-.366-.307-.48-.541a1.867 1.867 0 01-.172-.811v-.157c0-.313.056-.587.168-.824a1.256 1.256 0 011.184-.739c.264 0 .499.064.704.192.206.126.366.309.477.547.113.237.17.511.17.822v.142zm-.663-.144c0-.333-.06-.586-.179-.759s-.289-.259-.51-.259a.582.582 0 00-.508.257c-.119.17-.18.42-.181.75v.155c0 .324.06.576.179.754s.291.268.515.268c.22 0 .388-.086.506-.257.118-.173.177-.424.179-.754v-.155zm2.784.826a.331.331 0 00-.131-.283c-.087-.067-.244-.137-.471-.209a3.432 3.432 0 01-.539-.218c-.36-.195-.541-.457-.541-.787 0-.172.048-.324.144-.458a.945.945 0 01.416-.316c.182-.076.385-.113.61-.113.227 0 .429.041.606.124a.946.946 0 01.412.347c.099.15.148.32.148.51h-.654a.427.427 0 00-.137-.338c-.092-.081-.22-.122-.386-.122a.602.602 0 00-.373.102.316.316 0 00-.133.266c0 .103.052.19.155.259.105.07.258.135.46.196.372.112.643.251.813.416s.255.372.255.619a.767.767 0 01-.312.648c-.208.156-.488.233-.839.233-.244 0-.467-.044-.667-.133a1.07 1.07 0 01-.46-.368.945.945 0 01-.157-.541h.656c0 .35.209.525.628.525a.61.61 0 00.364-.094.313.313 0 00.131-.266zm3.491-1.812h-.972v2.645h-.654v-2.645h-.959v-.53h2.586v.53zm2.284 1.269h-1.256v.85h1.474v.525h-2.128v-3.174h2.124v.53h-1.469v.757h1.256v.512zm1.777.214h-.521v1.162h-.654v-3.174h1.18c.375 0 .664.084.868.251s.305.403.305.709a.97.97 0 01-.142.543.95.95 0 01-.425.344l.687 1.297v.03h-.702l-.595-1.162zm-.521-.53h.528c.164 0 .291-.041.382-.124.09-.084.135-.2.135-.347a.476.476 0 00-.129-.353c-.084-.086-.214-.129-.39-.129h-.525v.953zm3.964.574v1.118h-.654v-3.174h1.238c.238 0 .448.044.628.131a.964.964 0 01.419.373c.097.16.146.342.146.547 0 .311-.107.557-.321.737-.212.179-.507.268-.883.268h-.573zm0-.53h.584c.173 0 .305-.041.395-.122.092-.081.137-.198.137-.349 0-.156-.046-.281-.137-.377s-.218-.145-.379-.148h-.6v.996zm4.138.272h-1.256v.85h1.474v.525h-2.128v-3.174h2.124v.53h-1.469v.757h1.256v.512zm3.035-1.269h-.972v2.645h-.654v-2.645h-.959v-.53h2.586v.53zm2.285 1.269h-1.256v.85h1.474v.525h-2.128v-3.174h2.124v.53h-1.469v.757h1.256v.512zm1.777.214h-.521v1.162h-.654v-3.174h1.179c.375 0 .664.084.868.251s.305.403.305.709a.97.97 0 01-.142.543.95.95 0 01-.425.344l.687 1.297v.03h-.702l-.595-1.162zm-.521-.53h.528c.164 0 .291-.041.382-.124.09-.084.135-.2.135-.347a.476.476 0 00-.129-.353c-.084-.086-.214-.129-.39-.129h-.525v.953zm3.843.859a.331.331 0 00-.131-.283c-.087-.067-.244-.137-.471-.209a3.375 3.375 0 01-.538-.218c-.36-.195-.541-.457-.541-.787 0-.172.048-.324.144-.458a.945.945 0 01.416-.316 1.57 1.57 0 01.611-.113c.227 0 .429.041.606.124a.946.946 0 01.412.347c.099.15.148.32.148.51h-.654a.427.427 0 00-.137-.338c-.092-.081-.22-.122-.386-.122a.602.602 0 00-.373.102.316.316 0 00-.133.266c0 .103.052.19.155.259.105.07.258.135.46.196.372.112.643.251.813.416s.255.372.255.619a.767.767 0 01-.312.648c-.208.156-.488.233-.839.233-.244 0-.467-.044-.667-.133a1.07 1.07 0 01-.46-.368.945.945 0 01-.157-.541h.656c0 .35.209.525.628.525a.613.613 0 00.364-.094.313.313 0 00.131-.266z"/></symbol><symbol id="icon-person" viewBox="0 0 32 32"><path d="M16 16c2.947 0 5.333-2.387 5.333-5.333S18.946 5.334 16 5.334c-2.947 0-5.333 2.387-5.333 5.333S13.054 16 16 16zm0 2.667c-3.56 0-10.667 1.787-10.667 5.333v1.333c0 .733.6 1.333 1.333 1.333h18.667c.733 0 1.333-.6 1.333-1.333V24c0-3.547-7.107-5.333-10.667-5.333z"/></symbol><symbol id="icon-phone" viewBox="0 0 32 32"><path d="M24.881 19.773l-3.268-.373a2.561 2.561 0 00-2.11.733L17.136 22.5a19.357 19.357 0 01-8.478-8.478l2.38-2.38a2.561 2.561 0 00.733-2.11l-.373-3.242a2.575 2.575 0 00-2.56-2.277H6.612c-1.454 0-2.663 1.209-2.573 2.663.682 10.987 9.469 19.761 20.443 20.443 1.454.09 2.663-1.119 2.663-2.573V22.32a2.549 2.549 0 00-2.264-2.547z"/></symbol><symbol id="icon-send" viewBox="0 0 31 32"><path fill="var(--color1, #fff)" d="M30.72.924L0 18.11l9.818 3.616L24.96 7.607 13.442 23.061l.009.003-.012-.003v8.415l5.506-6.388 6.974 2.569 4.8-26.733z"/></symbol><symbol id="icon-smartphone" viewBox="0 0 20 32"><path d="M17 1.639H3c-1.654 0-3 1.249-3 2.785v24.138c0 1.536 1.346 2.785 3 2.785h14c1.654 0 3-1.249 3-2.785V4.424c0-1.536-1.346-2.785-3-2.785zM3 3.496h14c.552 0 1 .416 1 .928V23.92H2V4.424c0-.512.448-.928 1-.928zm14 25.995H3c-.552 0-1-.416-1-.928v-2.785h16v2.785c0 .512-.448.928-1 .928z"/><path d="M4.707 26.978c.391.363.391.951 0 1.313s-1.024.363-1.414 0c-.391-.363-.391-.951 0-1.313s1.024-.363 1.414 0z"/></symbol><symbol id="icon-twitter" viewBox="0 0 32 32"><path d="M32 6.078c-1.19.522-2.458.868-3.78 1.036a6.523 6.523 0 002.886-3.626 13.11 13.11 0 01-4.16 1.588A6.574 6.574 0 0022.154 3c-3.632 0-6.556 2.948-6.556 6.562 0 .52.044 1.02.152 1.496-5.454-.266-10.28-2.88-13.522-6.862a6.605 6.605 0 00-.898 3.316 6.57 6.57 0 002.914 5.452 6.479 6.479 0 01-2.964-.808v.072c0 3.188 2.274 5.836 5.256 6.446a6.548 6.548 0 01-1.72.216 5.8 5.8 0 01-1.242-.112c.85 2.598 3.262 4.508 6.13 4.57a13.182 13.182 0 01-8.134 2.798c-.538 0-1.054-.024-1.57-.09A18.469 18.469 0 0010.064 29c12.072 0 18.672-10 18.672-18.668 0-.29-.01-.57-.024-.848A13.087 13.087 0 0032 6.078z"/></symbol></defs></svg>